#Comment line ignore any data following # character 
#Hierarchical Translation and Rotation (.htr) file 
[Header]	
#Header keywords are followed by a single value 
FileType HTR		#Single word string
DataType HTRS		#Translation followed by rotation and scale data
FileVersion 1		#integer
NumSegments 84		#integer
NumFrames 2		#integer
DataFrameRate 30		#integer, data frame rate in this file
EulerRotationOrder ZYX
CalibrationUnits mm
RotationUnits Degrees
GlobalAxisofGravity Y
BoneLengthAxis Y
ScaleFactor 1.00
[SegmentNames&Hierarchy]
#CHILD	PARENT
MASTER GLOBAL
root MASTER
chest root
L_mid_tent01 root
R_mid_tent01 root
spine01 root
Bip01_Neck chest
L_humerus chest
R_humerus chest
weapon_bone chest
Bip01_Head Bip01_Neck
eye_left_bone Bip01_Head
eye_right_bone Bip01_Head
L_forearm L_humerus
L_front_hand L_forearm
L_weapon_bone L_forearm
L_front_hand01_01 L_front_hand
L_front_hand02_01 L_front_hand
L_front_hand03_01 L_front_hand
L_front_hand01_02 L_front_hand01_01
L_front_hand02_02 L_front_hand02_01
L_front_hand03_02 L_front_hand03_01
R_forearm R_humerus
R_front_hand R_forearm
R_weapon_bone R_forearm
R_front_hand01_01 R_front_hand
R_front_hand02_01 R_front_hand
R_front_hand03_01 R_front_hand
R_front_hand01_02 R_front_hand01_01
R_front_hand02_02 R_front_hand02_01
R_front_hand03_02 R_front_hand03_01
null_rope01_connect L_mid_tent01
Rope1_Seg01 null_rope01_connect
Rope1_Seg02 Rope1_Seg01
Rope1_Seg03 Rope1_Seg02
Rope1_Seg04 Rope1_Seg03
Rope1_Seg05 Rope1_Seg04
Rope1_Seg06 Rope1_Seg05
Rope1_Seg07 Rope1_Seg06
Rope1_Seg09 Rope1_Seg07
L_mid_hand01 Rope1_Seg09
L_mid_hand02 Rope1_Seg09
L_mid_hand03 Rope1_Seg09
null_rope02_connect R_mid_tent01
Rope2_Seg01 null_rope02_connect
Rope2_Seg02 Rope2_Seg01
Rope2_Seg03 Rope2_Seg02
Rope2_Seg04 Rope2_Seg03
Rope2_Seg05 Rope2_Seg04
Rope2_Seg06 Rope2_Seg05
Rope2_Seg07 Rope2_Seg06
Rope2_Seg09 Rope2_Seg07
R_mid_hand01 Rope2_Seg09
R_mid_hand02 Rope2_Seg09
R_mid_hand03 Rope2_Seg09
spine02 spine01
spine03 spine02
pelvis spine03
null_rope03_connect pelvis
null_rope04_connect pelvis
Rope3_Seg01 null_rope03_connect
Rope3_Seg02 Rope3_Seg01
Rope3_Seg03 Rope3_Seg02
Rope3_Seg04 Rope3_Seg03
Rope3_Seg05 Rope3_Seg04
Rope3_Seg06 Rope3_Seg05
Rope3_Seg07 Rope3_Seg06
Rope3_Seg08 Rope3_Seg07
Rope3_Seg09 Rope3_Seg08
R_rear_hand01 Rope3_Seg09
R_rear_hand02 Rope3_Seg09
R_rear_hand03 Rope3_Seg09
Rope4_Seg01 null_rope04_connect
Rope4_Seg02 Rope4_Seg01
Rope4_Seg03 Rope4_Seg02
Rope4_Seg04 Rope4_Seg03
Rope4_Seg05 Rope4_Seg04
Rope4_Seg06 Rope4_Seg05
Rope4_Seg07 Rope4_Seg06
Rope4_Seg08 Rope4_Seg07
Rope4_Seg09 Rope4_Seg08
L_rear_hand01 Rope4_Seg09
L_rear_hand02 Rope4_Seg09
L_rear_hand03 Rope4_Seg09
[BasePosition]
#SegmentName Tx, Ty, Tz, Rx, Ry, Rz, BoneLength
MASTER 0.000000 0.000000 0.000000 -90.000000 0.000000 0.000000 10.000000 
root 0.000000 0.000000 0.000000 0.000000 0.000000 0.000000 10.000000 
chest 0.000000 0.000000 0.000000 0.000000 0.000000 0.000000 10.000000 
L_mid_tent01 0.000000 0.000000 0.000000 0.000000 0.000000 0.000000 10.000000 
R_mid_tent01 0.000000 0.000000 0.000000 0.000000 0.000000 0.000000 10.000000 
spine01 0.000000 0.000000 0.000000 0.000000 0.000000 0.000000 10.000000 
Bip01_Neck 0.000000 0.000000 0.000000 0.000000 0.000000 0.000000 10.000000 
L_humerus 0.000000 0.000000 0.000000 0.000000 0.000000 0.000000 10.000000 
R_humerus 0.000000 0.000000 0.000000 0.000000 0.000000 0.000000 10.000000 
weapon_bone 0.000000 0.000000 0.000000 0.000000 0.000000 0.000000 10.000000 
Bip01_Head 0.000000 0.000000 0.000000 0.000000 0.000000 0.000000 10.000000 
eye_left_bone 0.000000 0.000000 0.000000 0.000000 0.000000 0.000000 10.000000 
eye_right_bone 0.000000 0.000000 0.000000 0.000000 0.000000 0.000000 10.000000 
L_forearm 0.000000 0.000000 0.000000 0.000000 0.000000 0.000000 10.000000 
L_front_hand 0.000000 0.000000 0.000000 0.000000 0.000000 0.000000 10.000000 
L_weapon_bone 0.000000 0.000000 0.000000 0.000000 0.000000 0.000000 10.000000 
L_front_hand01_01 0.000000 0.000000 0.000000 0.000000 0.000000 0.000000 10.000000 
L_front_hand02_01 0.000000 0.000000 0.000000 0.000000 0.000000 0.000000 10.000000 
L_front_hand03_01 0.000000 0.000000 0.000000 0.000000 0.000000 0.000000 10.000000 
L_front_hand01_02 0.000000 0.000000 0.000000 0.000000 0.000000 0.000000 10.000000 
L_front_hand02_02 0.000000 0.000000 0.000000 0.000000 0.000000 0.000000 10.000000 
L_front_hand03_02 0.000000 0.000000 0.000000 0.000000 0.000000 0.000000 10.000000 
R_forearm 0.000000 0.000000 0.000000 0.000000 0.000000 0.000000 10.000000 
R_front_hand 0.000000 0.000000 0.000000 0.000000 0.000000 0.000000 10.000000 
R_weapon_bone 0.000000 0.000000 0.000000 0.000000 0.000000 0.000000 10.000000 
R_front_hand01_01 0.000000 0.000000 0.000000 0.000000 0.000000 0.000000 10.000000 
R_front_hand02_01 0.000000 0.000000 0.000000 0.000000 0.000000 0.000000 10.000000 
R_front_hand03_01 0.000000 0.000000 0.000000 0.000000 0.000000 0.000000 10.000000 
R_front_hand01_02 0.000000 0.000000 0.000000 0.000000 0.000000 0.000000 10.000000 
R_front_hand02_02 0.000000 0.000000 0.000000 0.000000 0.000000 0.000000 10.000000 
R_front_hand03_02 0.000000 0.000000 0.000000 0.000000 0.000000 0.000000 10.000000 
null_rope01_connect 0.000000 0.000000 0.000000 0.000000 0.000000 0.000000 10.000000 
Rope1_Seg01 0.000000 0.000000 0.000000 0.000000 0.000000 0.000000 10.000000 
Rope1_Seg02 0.000000 0.000000 0.000000 0.000000 0.000000 0.000000 10.000000 
Rope1_Seg03 0.000000 0.000000 0.000000 0.000000 0.000000 0.000000 10.000000 
Rope1_Seg04 0.000000 0.000000 0.000000 0.000000 0.000000 0.000000 10.000000 
Rope1_Seg05 0.000000 0.000000 0.000000 0.000000 0.000000 0.000000 10.000000 
Rope1_Seg06 0.000000 0.000000 0.000000 0.000000 0.000000 0.000000 10.000000 
Rope1_Seg07 0.000000 0.000000 0.000000 0.000000 0.000000 0.000000 10.000000 
Rope1_Seg09 0.000000 0.000000 0.000000 0.000000 0.000000 0.000000 10.000000 
L_mid_hand01 0.000000 0.000000 0.000000 0.000000 0.000000 0.000000 10.000000 
L_mid_hand02 0.000000 0.000000 0.000000 0.000000 0.000000 0.000000 10.000000 
L_mid_hand03 0.000000 0.000000 0.000000 0.000000 0.000000 0.000000 10.000000 
null_rope02_connect 0.000000 0.000000 0.000000 0.000000 0.000000 0.000000 10.000000 
Rope2_Seg01 0.000000 0.000000 0.000000 0.000000 0.000000 0.000000 10.000000 
Rope2_Seg02 0.000000 0.000000 0.000000 0.000000 0.000000 0.000000 10.000000 
Rope2_Seg03 0.000000 0.000000 0.000000 0.000000 0.000000 0.000000 10.000000 
Rope2_Seg04 0.000000 0.000000 0.000000 0.000000 0.000000 0.000000 10.000000 
Rope2_Seg05 0.000000 0.000000 0.000000 0.000000 0.000000 0.000000 10.000000 
Rope2_Seg06 0.000000 0.000000 0.000000 0.000000 0.000000 0.000000 10.000000 
Rope2_Seg07 0.000000 0.000000 0.000000 0.000000 0.000000 0.000000 10.000000 
Rope2_Seg09 0.000000 0.000000 0.000000 0.000000 0.000000 0.000000 10.000000 
R_mid_hand01 0.000000 0.000000 0.000000 0.000000 0.000000 0.000000 10.000000 
R_mid_hand02 0.000000 0.000000 0.000000 0.000000 0.000000 0.000000 10.000000 
R_mid_hand03 0.000000 0.000000 0.000000 0.000000 0.000000 0.000000 10.000000 
spine02 0.000000 0.000000 0.000000 0.000000 0.000000 0.000000 10.000000 
spine03 0.000000 0.000000 0.000000 0.000000 0.000000 0.000000 10.000000 
pelvis 0.000000 0.000000 0.000000 0.000000 0.000000 0.000000 10.000000 
null_rope03_connect 0.000000 0.000000 0.000000 0.000000 0.000000 0.000000 10.000000 
null_rope04_connect 0.000000 0.000000 0.000000 0.000000 0.000000 0.000000 10.000000 
Rope3_Seg01 0.000000 0.000000 0.000000 0.000000 0.000000 0.000000 10.000000 
Rope3_Seg02 0.000000 0.000000 0.000000 0.000000 0.000000 0.000000 10.000000 
Rope3_Seg03 0.000000 0.000000 0.000000 0.000000 0.000000 0.000000 10.000000 
Rope3_Seg04 0.000000 0.000000 0.000000 0.000000 0.000000 0.000000 10.000000 
Rope3_Seg05 0.000000 0.000000 0.000000 0.000000 0.000000 0.000000 10.000000 
Rope3_Seg06 0.000000 0.000000 0.000000 0.000000 0.000000 0.000000 10.000000 
Rope3_Seg07 0.000000 0.000000 0.000000 0.000000 0.000000 0.000000 10.000000 
Rope3_Seg08 0.000000 0.000000 0.000000 0.000000 0.000000 0.000000 10.000000 
Rope3_Seg09 0.000000 0.000000 0.000000 0.000000 0.000000 0.000000 10.000000 
R_rear_hand01 0.000000 0.000000 0.000000 0.000000 0.000000 0.000000 10.000000 
R_rear_hand02 0.000000 0.000000 0.000000 0.000000 0.000000 0.000000 10.000000 
R_rear_hand03 0.000000 0.000000 0.000000 0.000000 0.000000 0.000000 10.000000 
Rope4_Seg01 0.000000 0.000000 0.000000 0.000000 0.000000 0.000000 10.000000 
Rope4_Seg02 0.000000 0.000000 0.000000 0.000000 0.000000 0.000000 10.000000 
Rope4_Seg03 0.000000 0.000000 0.000000 0.000000 0.000000 0.000000 10.000000 
Rope4_Seg04 0.000000 0.000000 0.000000 0.000000 0.000000 0.000000 10.000000 
Rope4_Seg05 0.000000 0.000000 0.000000 0.000000 0.000000 0.000000 10.000000 
Rope4_Seg06 0.000000 0.000000 0.000000 0.000000 0.000000 0.000000 10.000000 
Rope4_Seg07 0.000000 0.000000 0.000000 0.000000 0.000000 0.000000 10.000000 
Rope4_Seg08 0.000000 0.000000 0.000000 0.000000 0.000000 0.000000 10.000000 
Rope4_Seg09 0.000000 0.000000 0.000000 0.000000 0.000000 0.000000 10.000000 
L_rear_hand01 0.000000 0.000000 0.000000 0.000000 0.000000 0.000000 10.000000 
L_rear_hand02 0.000000 0.000000 0.000000 0.000000 0.000000 0.000000 10.000000 
L_rear_hand03 0.000000 0.000000 0.000000 0.000000 0.000000 0.000000 10.000000 
#Beginning of Data. Separated by tabs
#Fr	Tx	Ty	Tz	Rx	Ry	Rz	SF
[MASTER]
18 0.000000 0.000000 0.000000 0.001660 0.001660 0.001660 0.000000
19 0.000000 0.000000 0.000000 0.001660 0.001660 0.001660 0.000000
[root]
18 -16.398836 -62.822109 540.567078 -85.294128 -3.813756 -90.802094 544.452332
19 -7.060393 -62.822109 536.998291 -85.371063 -3.996111 -90.764442 540.706604
[chest]
18 -78.776344 23.682785 -42.365093 1.934144 -2.250931 157.201614 92.527763
19 -79.210167 19.313547 -39.161144 2.252051 -2.174589 156.094711 90.448105
[L_mid_tent01]
18 27.224195 22.220688 -249.434219 -1.376217 20.666773 94.592972 251.897491
19 27.238825 22.212296 -249.528198 -1.587632 21.015295 94.494934 251.991394
[R_mid_tent01]
18 23.228794 24.509907 226.238495 151.003952 -19.373796 107.964180 228.744751
19 23.228794 24.509907 226.238495 149.126938 -21.549410 104.724121 228.744751
[spine01]
18 -0.361383 -0.195265 0.000000 -0.000001 -0.000007 22.052340 0.410763
19 -0.361383 -0.195265 0.000000 -0.000001 -0.000007 22.052340 0.410763
[Bip01_Neck]
18 165.484543 71.581718 0.000119 175.896118 1.177290 24.871183 180.302734
19 165.484543 71.581718 0.000119 175.896118 1.177290 24.871183 180.302734
[L_humerus]
18 -13.983130 -135.272980 -120.471481 -20.896057 13.405782 -39.767883 181.680161
19 -13.983130 -135.272980 -120.471481 -31.352594 31.224070 -12.092896 181.680161
[R_humerus]
18 -13.983309 -135.273102 125.287651 21.596272 -9.697820 -33.018364 184.909012
19 -13.983309 -135.273102 125.287651 35.881458 -24.490705 -4.046145 184.909012
[weapon_bone]
18 235.964890 -300.705902 0.000000 0.000000 -89.951546 -128.212341 382.234833
19 235.964890 -300.705902 0.000000 0.000000 -89.951546 -128.212341 382.234833
[Bip01_Head]
18 175.072113 146.366455 3.532209 7.048230 1.070134 -29.413322 228.223282
19 175.269073 149.005569 3.348796 7.316341 1.711943 -29.678722 230.071991
[eye_left_bone]
18 -24.626970 125.451866 -64.772606 0.000000 -90.000000 -99.840431 143.318359
19 -24.626970 125.451866 -64.772606 0.000000 -90.000000 -99.840431 143.318359
[eye_right_bone]
18 -24.626970 125.451866 64.327362 0.000000 -89.960434 80.159386 143.117676
19 -24.626970 125.451866 64.327362 0.000000 -89.960434 80.159386 143.117676
[L_forearm]
18 322.776093 0.000000 -0.000119 0.000878 -0.002177 -133.911728 322.776093
19 322.776093 0.000000 -0.000119 0.000720 -0.002234 -125.729454 322.776093
[L_front_hand]
18 241.149185 -0.042021 -3.300071 -179.726547 -2.251214 1.608950 241.171753
19 241.149185 -0.042021 -3.300071 176.190170 -1.434962 3.345751 241.171753
[L_weapon_bone]
18 156.183838 0.000000 0.000000 0.000014 0.000007 0.000001 156.183838
19 156.183838 0.000000 0.000000 0.000014 0.000007 0.000001 156.183838
[L_front_hand01_01]
18 86.095154 20.947098 -0.655860 0.337032 -0.494159 3.700273 88.609184
19 86.095154 20.947098 -0.655860 0.148613 -0.579930 23.539864 88.609184
[L_front_hand02_01]
18 86.935165 -11.437475 24.513514 116.964653 -3.786660 -2.273062 91.046425
19 86.935165 -11.437475 24.513514 119.068001 -21.349419 -11.786868 91.046425
[L_front_hand03_01]
18 86.637497 -14.123976 -20.424902 -118.354561 2.663028 -4.108076 90.126129
19 86.637497 -14.123976 -20.424902 -120.323059 20.003366 -13.983663 90.126129
[L_front_hand01_02]
18 71.020905 -0.000179 0.000030 0.001512 0.001796 -9.807716 71.020905
19 71.020905 -0.000179 0.000030 0.001448 0.001847 -13.805477 71.020905
[L_front_hand02_02]
18 71.020927 -0.000119 0.000060 0.001512 0.001796 -9.807716 71.020927
19 71.020927 -0.000119 0.000060 0.001448 0.001847 -13.805477 71.020927
[L_front_hand03_02]
18 71.020905 -0.000060 0.000060 0.001512 0.001796 -9.807716 71.020905
19 71.020905 -0.000060 0.000060 0.001448 0.001847 -13.805477 71.020905
[R_forearm]
18 322.776428 -0.000060 0.000030 0.169839 0.129872 -127.946846 322.776428
19 322.776428 -0.000060 0.000030 0.193686 0.093194 -116.340912 322.776428
[R_front_hand]
18 238.847015 -0.006795 2.210259 -0.369161 1.685055 -0.997980 238.857239
19 238.847015 -0.006795 2.210259 3.942069 0.410882 0.763055 238.857239
[R_weapon_bone]
18 155.664093 0.002503 -0.000030 0.003487 0.001180 -90.988930 155.664078
19 155.664093 0.002503 -0.000030 0.003487 0.001180 -90.988930 155.664078
[R_front_hand01_01]
18 87.624611 14.231146 22.918642 -116.972237 -3.923297 2.448966 91.683487
19 87.624611 14.231146 22.918642 -119.094803 -21.477140 11.970318 91.683487
[R_front_hand02_01]
18 89.356956 14.367283 -19.491137 118.378357 3.066408 4.563783 92.579636
19 89.356956 14.367283 -19.491137 120.422699 20.397202 14.476055 92.579636
[R_front_hand03_01]
18 87.286232 -22.307278 -0.143439 -0.349330 -0.287943 -4.088442 90.091743
19 87.286232 -22.307278 -0.143439 -0.233810 -0.391628 -23.930477 90.091743
[R_front_hand01_02]
18 71.020905 0.000060 0.000119 0.001796 0.001512 9.806078 71.020905
19 71.020905 0.000060 0.000119 0.001847 0.001448 13.808818 71.020905
[R_front_hand02_02]
18 71.020844 -0.000030 -0.000119 0.001796 0.001512 9.806078 71.020836
19 71.020844 -0.000030 -0.000119 0.001847 0.001448 13.808818 71.020836
[R_front_hand03_02]
18 71.020905 0.000000 0.000030 0.001796 0.001512 9.806078 71.020905
19 71.020905 0.000000 0.000030 0.001847 0.001448 13.808818 71.020905
[null_rope01_connect]
18 328.732483 0.000000 -0.000238 175.716461 -74.008080 -176.735901 328.732483
19 328.732483 0.000000 -0.000238 175.269028 -73.562416 -176.038162 328.732483
[Rope1_Seg01]
18 -0.000027 0.000017 0.000066 129.869888 -33.417309 123.151512 0.000073
19 -0.000027 0.000015 0.000061 128.232864 -31.150335 123.376717 0.000068
[Rope1_Seg02]
18 139.999863 -0.000179 0.000000 -2.084421 -2.624712 -1.593311 139.999863
19 139.999863 -0.000179 0.000000 -1.819134 -2.297328 -1.470831 139.999863
[Rope1_Seg03]
18 139.999924 0.000060 -0.000060 -3.143064 -3.789124 -2.503355 139.999924
19 139.999924 0.000060 -0.000060 -2.704531 -3.303140 -2.266391 139.999924
[Rope1_Seg04]
18 139.999924 -0.000060 -0.000119 -5.243892 -6.058599 -4.501320 139.999924
19 139.999924 -0.000060 -0.000119 -4.472628 -5.262091 -3.995202 139.999924
[Rope1_Seg05]
18 139.999832 0.000119 -0.000060 -11.269632 -13.990848 -8.616977 139.999832
19 139.999832 0.000119 -0.000060 -9.583071 -12.314549 -7.040245 139.999832
[Rope1_Seg06]
18 139.999954 0.000119 -0.000060 -12.150825 -12.521778 -26.320148 139.999954
19 139.999954 0.000119 -0.000060 -12.291922 -13.477559 -27.066851 139.999954
[Rope1_Seg07]
18 139.999985 0.000060 0.000000 -3.993792 6.183053 -46.819855 139.999985
19 139.999985 0.000060 0.000000 -3.015333 4.436160 -49.632820 139.999985
[Rope1_Seg09]
18 121.602913 0.000119 -0.000089 -89.793175 -1.359789 0.847147 121.602913
19 121.602913 0.000119 -0.000089 -89.793175 -1.359789 0.847147 121.602913
[L_mid_hand01]
18 103.859421 1.038730 8.195221 106.169327 -27.093647 -8.054826 104.187431
19 103.859421 1.038730 8.195221 106.205704 -27.341377 -8.136054 104.187431
[L_mid_hand02]
18 105.572853 -4.139662 -10.864139 -140.794846 23.064785 -25.056143 106.211075
19 105.572853 -4.139662 -10.864139 -140.881363 23.228615 -25.274969 106.211075
[L_mid_hand03]
18 104.641464 17.579376 -3.913581 -16.786730 8.509504 30.027185 106.179977
19 104.641464 17.579376 -3.913581 -16.750540 8.585018 30.276497 106.179977
[null_rope02_connect]
18 328.732849 0.000179 -0.000119 -139.896271 52.463242 48.024029 328.732849
19 328.732849 0.000179 -0.000119 -136.789703 50.046127 46.632896 328.732849
[Rope2_Seg01]
18 -0.000002 -0.000031 0.000000 -67.421631 -44.499775 70.078918 0.000032
19 -0.000008 -0.000040 0.000000 -66.221436 -42.876064 69.646767 0.000041
[Rope2_Seg02]
18 139.999741 -0.000060 -0.000119 5.373760 5.443024 7.931059 139.999756
19 139.999741 -0.000060 -0.000119 5.510477 5.448664 8.266223 139.999756
[Rope2_Seg03]
18 140.000107 0.000030 0.000000 7.228903 9.161286 11.230661 140.000107
19 140.000107 0.000030 0.000000 7.210371 8.942174 11.338366 140.000107
[Rope2_Seg04]
18 139.999802 0.000000 -0.000060 7.590171 14.903918 13.693296 139.999802
19 139.999802 0.000000 -0.000060 7.147834 13.956939 12.845710 139.999802
[Rope2_Seg05]
18 139.999985 -0.000060 0.000119 3.233150 12.346243 9.637802 139.999985
19 139.999985 -0.000060 0.000119 3.244616 11.124593 9.269777 139.999985
[Rope2_Seg06]
18 139.999893 -0.000030 -0.000119 3.065559 17.279049 18.051210 139.999893
19 139.999893 -0.000030 -0.000119 4.803824 18.739233 21.970858 139.999893
[Rope2_Seg07]
18 139.999893 0.000060 -0.000060 2.497474 32.502693 40.843407 139.999893
19 139.999893 0.000060 -0.000060 4.093785 31.902956 42.055450 139.999893
[Rope2_Seg09]
18 121.338966 0.000089 -0.000060 33.793236 -1.359788 -0.847141 121.338966
19 121.338966 0.000089 -0.000060 33.793236 -1.359788 -0.847141 121.338966
[R_mid_hand01]
18 104.680779 11.144459 -10.335981 -42.483589 23.519337 26.273701 105.778534
19 104.680779 11.144459 -10.335981 -42.750732 22.953905 25.606674 105.778534
[R_mid_hand02]
18 104.070427 2.443552 8.231699 73.348755 -30.026646 9.047529 104.424065
19 104.070427 2.443552 8.231699 73.485046 -29.224543 8.771014 104.424065
[R_mid_hand03]
18 106.028137 -11.221827 -5.996406 -167.412781 9.650889 -34.192627 106.788818
19 106.028137 -11.221827 -5.996406 -167.274673 9.466213 -33.359016 106.788818
[spine02]
18 129.756927 0.001550 0.000119 -0.220178 -4.166480 -4.792227 129.756927
19 129.756927 0.001550 0.000119 -0.231362 -4.141680 -4.648197 129.756927
[spine03]
18 78.629181 0.084564 -4.748870 0.336151 5.061368 -5.773120 78.772499
19 78.626991 0.084943 -4.770289 0.345002 4.872343 -5.554809 78.771606
[pelvis]
18 169.435242 0.051022 0.000000 0.019947 0.813118 -1.605640 169.435257
19 169.435242 0.051022 0.000000 0.017796 0.644896 -1.526523 169.435257
[null_rope03_connect]
18 -1.257226 -2.466202 137.391083 -24.140472 -84.473625 108.029938 137.418976
19 -1.257226 -2.466202 137.391083 -20.643967 -84.685806 104.293945 137.418976
[null_rope04_connect]
18 -1.259640 -2.480268 -137.844437 -24.140472 -84.473625 108.029938 137.872513
19 -1.259640 -2.480268 -137.844437 -20.643967 -84.685806 104.293945 137.872513
[Rope3_Seg01]
18 0.000000 0.000000 0.000000 -144.592361 -39.022476 -60.293072 0.000000
19 0.000000 0.000000 0.000000 -145.033234 -41.203411 -61.077991 0.000000
[Rope3_Seg02]
18 139.999924 -0.000119 0.000060 5.425397 -12.049027 7.026712 139.999924
19 139.999924 -0.000119 0.000060 5.221220 -11.914548 7.097839 139.999924
[Rope3_Seg03]
18 139.999924 -0.000119 0.000119 6.686733 -16.259336 12.039235 139.999924
19 139.999924 -0.000119 0.000119 6.490439 -16.594040 12.525924 139.999924
[Rope3_Seg04]
18 139.999924 0.000119 0.000000 5.282801 -15.081962 12.791952 139.999924
19 139.999924 0.000119 0.000000 4.992008 -15.752071 13.988281 139.999924
[Rope3_Seg05]
18 139.999924 -0.000238 0.000060 2.916968 -8.786176 13.085360 139.999924
19 139.999924 -0.000238 0.000060 2.574005 -9.069266 13.036997 139.999924
[Rope3_Seg06]
18 139.999893 -0.000119 -0.000060 -0.030424 -8.840764 23.806381 139.999893
19 139.999893 -0.000119 -0.000060 -0.243393 -9.354652 22.490345 139.999893
[Rope3_Seg07]
18 139.999771 0.000060 -0.000119 -4.805042 -8.004943 22.654612 139.999771
19 139.999771 0.000060 -0.000119 -4.942519 -8.890259 22.630653 139.999771
[Rope3_Seg08]
18 139.999985 -0.000060 0.000000 -3.744589 -4.899292 10.815984 139.999985
19 139.999985 -0.000060 0.000000 -3.770604 -5.392523 10.885265 139.999985
[Rope3_Seg09]
18 90.185997 -0.000179 -0.000060 89.793228 -1.359877 -0.847183 90.185997
19 90.185997 -0.000179 -0.000060 89.793228 -1.359877 -0.847183 90.185997
[R_rear_hand01]
18 103.366196 -6.073594 -10.757982 -161.551193 16.666374 -30.088671 104.101845
19 103.366196 -6.073594 -10.757982 -161.551193 16.666374 -30.088671 104.101845
[R_rear_hand02]
18 100.509819 12.039542 -7.992327 -34.280552 19.289745 28.875523 101.543350
19 100.509819 12.039542 -7.992327 -34.280552 19.289745 28.875523 101.543350
[R_rear_hand03]
18 101.539970 5.215704 5.435467 83.366440 -30.933914 7.284830 101.819031
19 101.539970 5.215704 5.435467 83.366440 -30.933914 7.284830 101.819031
[Rope4_Seg01]
18 -0.000008 -0.000071 -0.000065 86.889381 -45.711227 -148.146896 0.000097
19 -0.000010 -0.000069 -0.000069 88.096771 -45.902008 -149.198868 0.000098
[Rope4_Seg02]
18 139.999985 0.000060 0.000119 -11.665563 7.276688 -10.537972 139.999985
19 139.999985 0.000060 0.000119 -10.516059 6.178472 -9.364722 139.999985
[Rope4_Seg03]
18 139.999924 0.000000 -0.000238 -16.897579 16.298876 -16.443064 139.999924
19 139.999924 0.000000 -0.000238 -16.554838 14.332056 -15.536401 139.999924
[Rope4_Seg04]
18 139.999985 0.000000 0.000119 -11.447566 28.296326 -13.855215 139.999985
19 139.999985 0.000000 0.000119 -14.583194 29.120779 -16.781801 139.999985
[Rope4_Seg05]
18 139.999802 -0.000060 -0.000119 -1.340411 15.489493 -6.443149 139.999802
19 139.999802 -0.000060 -0.000119 -1.968958 18.798910 -6.951096 139.999802
[Rope4_Seg06]
18 139.999924 0.000000 0.000060 0.430796 11.311405 -11.820154 139.999924
19 139.999924 0.000000 0.000060 0.609060 10.662905 -9.868516 139.999924
[Rope4_Seg07]
18 139.999802 0.000000 0.000000 1.533837 16.727522 -24.019871 139.999802
19 139.999802 0.000000 0.000000 1.868524 14.661290 -21.857792 139.999802
[Rope4_Seg08]
18 139.999924 0.000000 0.000119 1.303817 11.094934 -14.992310 139.999924
19 139.999924 0.000000 0.000119 1.288971 11.543142 -15.561389 139.999924
[Rope4_Seg09]
18 90.185791 0.000060 0.000060 -135.617828 2.228885 0.850567 90.185791
19 90.185791 0.000060 0.000060 -135.617828 2.228885 0.850567 90.185791
[L_rear_hand01]
18 101.696655 -8.392275 -7.654577 -35.092434 -17.604166 153.690643 102.329041
19 101.696655 -8.392275 -7.654577 -35.092678 -17.604013 153.690613 102.329041
[L_rear_hand02]
18 102.726799 -1.568258 5.773216 83.559082 27.992090 173.102753 102.900848
19 102.726799 -1.568258 5.773216 83.559013 27.991926 173.102615 102.900848
[L_rear_hand03]
18 104.552910 9.721220 -10.420293 -160.739151 -15.709926 -152.830093 105.519653
19 104.552910 9.721220 -10.420293 -160.739120 -15.709889 -152.830307 105.519653
